<svg xmlns="http://www.w3.org/2000/svg" width="2910.287" height="903.905" viewBox="0 0 2910.287 903.905"><path d="M1242.748,1826.215c-18.235-15.894-37.2-31.025-54.521-47.846-5.02-4.874-7.171-14.283-7.794-21.847-3.838-46.626-6.4-93.358-10.264-139.981-6.011-72.468-12.728-144.879-19.282-218.857-9.329,7.23-11.092,17.58-11.8,26.988-2.616,34.691-18.1,65.5-28.811,97.638-6.957,20.864-45.123,32.837-63.108,21.05-17.721-11.615-33.876-25.608-51.508-37.373-22.445-14.978-36.68-35.783-46.857-60.085-1.6-3.823-4.2-7.23-6.337-10.829l-4.335,1.386c1.466,28.868,3.62,57.722,4.223,86.606.728,34.876-.282,69.785.3,104.666.306,18.487,1.679,37.024,3.812,55.4,3.519,30.3-2.831,41.414-31.006,53.034-10.716,4.419-20.834,10.29-35.005,17.394l-54.679-15.014c-1.994-38.546-3.584-75.486-5.878-112.38-4.838-77.844-10.93-155.621-14.784-233.51-2.49-50.323-.721-100.854-3.094-151.187-2.1-44.434-7.379-88.716-11.063-133.079-1.447-17.422-.869-16.956,16.276-22.569,15.4-5.042,30.091-12.213,45.385-17.622,37.684-13.329,72.257-2.744,88.811,33.822,15.864,35.048,32.591,69.707,48.361,104.8,12.661,28.171,24.457,56.731,38.565,89.612,25.837-93.753,38.747-186.973,73.193-276.7,13.907,1.683,27.736.094,41.6-1.5,18.061-2.072,36.184-4.144,54.616,1.024,21.946,6.153,33.757,18.319,39.943,41.649,16.985,64.061,21.717,130,32.813,194.9,9.105,53.253,11.661,107.65,16.572,161.59q8.07,88.645,15.106,177.384c5.159,63.66,9.1,127.43,15.268,190.987,2.54,26.164-13.113,38.577-31.662,47.994a34.242,34.242,0,0,1-15.62,3.817C1260.6,1837.568,1251.09,1833.486,1242.748,1826.215Zm247.393-11.73c-27.284-26.026-46.79-54.334-52.167-93.8-14-102.751-31.763-204.983-47.083-307.562-11.271-75.468-22.189-151.025-31.024-226.8-4.456-38.223-4.018-77.021-5.611-115.568-.544-13.164,2.3-27.267-17.442-35.138,9.181-4.552,13.313-8.131,17.727-8.523,18.318-1.623,36.262-1.915,53.531,7.651,13.445,7.447,28.359,12.361,42.865,17.742,18.524,6.871,25.342,22.674,28.439,39.528,4.24,23.086,6.386,46.606,8.482,70.024,2.031,22.723,1.633,45.707,4.449,68.309,9.338,74.953,18.931,149.87,34.455,223.914,5.739,27.374,11.532,55.255,12.207,83.028.713,29.273,8.874,56.169,14.893,84.117,6.643,30.843,7.015,63.055,9.85,94.694,1.786,19.921,1.541,40.154,4.96,59.767,4.883,28.014-6.894,42.229-39.631,49.443a47.776,47.776,0,0,1-10.283,1.166C1508.608,1826.478,1498.913,1822.854,1490.141,1814.486ZM404.865,1778.07c-89.064-33.131-158.8-90.8-194.521-182.706-23.158-59.574-26.889-121.817-22.272-184.338,4.37-59.178,13.131-118.025,19.58-177.059,5.78-52.9,25.954-100.107,55.32-143.895,9.286-13.846,22.8-22.454,38.439-24.145,27.105-2.931,54.5-3.47,81.8-4.092,7.948-.181,16.214,1.991,23.908,4.427,23.932,7.578,24.8,8.7,33.712,31.548,3.271-.247,6.845-.554,10.422-.78,42.032-2.649,78.509,10.894,111.466,36.58,31.862,24.833,60.743,52.088,82.824,86.333,33.416,51.825,48.872,109.009,54.885,169.759,5.17,52.237,1.583,104.048-7.433,155.188-7.568,42.927-19.889,85.036-30.583,127.387-12.86,50.93-47.264,82.753-94.072,102.318a219.441,219.441,0,0,1-163.479,3.476Zm-7.231-630.79c-29.433,40.259-46.264,85.98-55.031,134.378-5.806,32.047-8.036,64.785-11.014,97.292-4.934,53.872-10.327,107.462-3.034,161.957,8.618,64.39,37.253,116.4,85.68,158.335,15.237,13.194,32.113,23.539,52.926,26.374,14.386,1.958,26.689.438,34.313-13.444,7.1-12.928,16.2-25.383,20.2-39.261,9.436-32.7,17.43-65.9,24.084-99.287,15.233-76.427,17.531-153.171,2.006-229.974-11.048-54.658-30.928-105.194-70.5-145.9-21.1-21.7-42.26-43.706-74.7-58.814C400.687,1142.146,399.389,1144.879,397.634,1147.28ZM1899.191,1758.8c-49.5-.391-92.906-18.346-131.473-47.887-31.5-24.131-56.71-54.956-78.321-87.732-12.763-19.355-20.961-42.519-27.44-65.055-13.912-48.393-13.953-98.272-9.661-148.055,5.485-63.621,11.277-127.292,31.787-188.362,11.1-33.058,22.867-65.7,43.006-94.993,9.507-13.83,19.451-20.588,36.117-24.972,19.648-5.169,38.93-7.536,58.8-8.538,27.014-1.363,53.4.73,77.672,14.2,5.828,3.234,12.106,6.178,16.923,10.615,16.407,15.116,12.989,28.057-7.941,34.832-6.518,2.11-12.128,7.017-19.654,11.548-14.343-22.469-29.3-24.879-48.662-7.8-16.623,14.665-26.956,33.747-33.661,54.311-23.563,72.267-38.06,146.158-37.414,222.574.257,30.464.116,60.935-.144,91.4-.351,41.246,12.767,78.891,31.965,114.416,12.375,22.9,32.891,38.011,56.671,48.168,5.132,2.193,11.841,3.688,17,2.346,46.934-12.2,84.56-35.515,99.323-85.457,13.442-45.471,28.008-90.623,40.583-136.327,4-14.536,3.2-30.391,4.824-48.162-13.51,1.749-23.672,2.232-33.422,4.494-22.738,5.275-43.806-2.535-64.819-8.264-14.128-3.852-27.968-9.422-36.326-24.322-4.272-7.616-13.854-12.254-22.271-19.266,3.838-2.623,5.965-5.293,8.314-5.5,58.377-5.239,116.679-12.48,175.441-10.406,22.054.778,44.06,3.5,66.024,5.926,15.074,1.662,24.538,11.653,26.938,25.539,2.736,15.836,5.464,32.845,2.542,48.273-9.5,50.146-21.856,99.745-32.476,149.691-2.577,12.122-.9,25.29-4.322,37.064-9.137,31.445-27.375,57.685-52.806,78.1-44.154,35.438-93.67,57.618-151.349,57.62C1900.372,1758.807,1899.786,1758.8,1899.191,1758.8Zm521.6-26.305a241.993,241.993,0,0,1-55.327-32.226c-25.223-19.349-46.549-41.7-59.939-70.61-19.012-41.047-38.041-82.128-55.436-123.872-17.907-42.974-22.035-88.985-24.747-134.905-1.268-21.471-.217-43.078-.217-64.625l-2.005-.077c2.124-45.234,1.844-90.74,6.936-135.637,7.623-67.214,21.3-133.259,56.885-192.615,12.284-20.488,28.04-32.829,53.255-34.146,18.9-.986,37.429-7.936,56.36-9.715,12.935-1.215,26.641.419,39.328,3.53,11.147,2.733,21.255,9.53,32.032,14.032a32.333,32.333,0,0,0,12.676,2.556c38.832-.7,72,14.446,103.092,35.91,21.97,15.168,45.642,28.169,62.351,49.874,4.066,5.282,8.822,10.266,11.776,16.134,27.05,53.753,48.167,108.982,58.408,169.2,11.356,66.772,9.242,133.406,6.817,199.98-2.156,59.2-13.853,117.718-29.145,175.115-8.345,31.318-24.168,58.792-48.045,81.393-21.616,20.46-44.524,38.674-70.925,53.062a140.114,140.114,0,0,1-68.369,17.655C2477.82,1752.505,2449.325,1744.251,2420.786,1732.495Zm15.237-722.028c-51.571,65.477-71.884,142.22-76.982,223.273-3.161,50.254-1.665,100.834-1.377,151.263.3,52.077,4.127,103.862,26.267,152.092,15.458,33.671,31.362,67.233,49.131,99.715,12.87,23.525,30.261,43.95,57.686,53.258,27.679-17.459,52.166-37.849,62.682-69.838,8.084-24.591,16.236-49.621,19.966-75.1,14.027-95.816,16.551-192.091,6.537-288.562-4.073-39.241-12.806-77.146-24.813-114.936-19.621-61.753-58.2-105.077-115.358-133.375C2438.5,1008.98,2436.858,1009.407,2436.023,1010.467ZM-15.385,1737.325c-33.2-14.755-65.285-31.847-92.5-56.279-22.535-20.234-32.1-47.812-38.03-76.541-8.4-40.7-17.113-81.389-23.652-122.407-6.512-40.844-11.231-82.02-15.226-123.2-1.483-15.289.294-31.133,2.372-46.481,5.364-39.637,11.123-79.244,18.031-118.634,2.27-12.943,7.716-25.574,13.338-37.586,2.913-6.224,8.594-11.942,14.384-15.9,29.243-19.994,63.347-28.565,96.945-36.294,28.593-6.578,93.268,14.344,110.469,52.412,7.006,15.5,17.267,29.527,24.416,44.979,11.475,24.8.79,40.588-26.684,40.712-10.342.047-21.164.964-30.881-1.722-7.9-2.184-16.075-7.856-21.315-14.277-10.277-12.588-18.043-27.194-27.9-40.163-7.372-9.695-16.4-18.131-24.7-27.142-17,8.927-19.168,21.25-19.764,32.849-2.626,51.118-5.764,102.28-5.956,153.436-.265,70.969,14.39,139.945,33.441,208,7.776,27.774,15.188,55.719,24.7,82.911,4.791,13.7,12.862,26.62,21.309,38.579,10.553,14.941,17.933,14,27.9-1.9a143.157,143.157,0,0,0,21.463-67.082c1.758-26.224,15.2-47.476,27.166-69.152,7.687-13.92,29.979-11.616,41.81,2.549,10.266,12.29,21.439,23.936,30.633,36.977,14.558,20.651,19.113,44.741,19.068,69.525-.037,20.709-3.109,39.742-15.613,58.6-18.731,28.254-45.526,41.012-75.754,45.124a270.347,270.347,0,0,1-36.385,2.606C32.865,1751.826,8.178,1747.8-15.385,1737.325Z" transform="translate(185.337 -933.663)" fill="#952a29"/></svg>